Coordinates
version=1
nRows=7
nColumns=63
inDegrees=yes

Units are S.I. units (second, meters, Newtons, ...)
If the header above contains a line with 'inDegrees', this indicates whether rotational values are in degrees (yes) or radians (no).

endheader
time	pelvis_tilt	pelvis_list	pelvis_rotation	pelvis_tx	pelvis_ty	pelvis_tz	hip_flexion_r	hip_adduction_r	hip_rotation_r	knee_angle_r	knee_angle_r_beta	ankle_angle_r	subtalar_angle_r	mtp_angle_r	hip_flexion_l	hip_adduction_l	hip_rotation_l	knee_angle_l	knee_angle_l_beta	ankle_angle_l	subtalar_angle_l	mtp_angle_l	L5_S1_Flex_Ext	L5_S1_Lat_Bending	L5_S1_axial_rotation	L4_L5_Flex_Ext	L4_L5_Lat_Bending	L4_L5_axial_rotation	L3_L4_Flex_Ext	L3_L4_Lat_Bending	L3_L4_axial_rotation	L2_L3_Flex_Ext	L2_L3_Lat_Bending	L2_L3_axial_rotation	L1_L2_Flex_Ext	L1_L2_Lat_Bending	L1_L2_axial_rotation	L1_T12_Flex_Ext	L1_T12_Lat_Bending	L1_T12_axial_rotation	Abs_r3	Abs_r2	Abs_r1	Abs_t1	Abs_t2	neck_flexion	neck_bending	neck_rotation	arm_flex_r	arm_add_r	arm_rot_r	elbow_flex_r	pro_sup_r	wrist_flex_r	wrist_dev_r	arm_flex_l	arm_add_l	arm_rot_l	elbow_flex_l	pro_sup_l	wrist_flex_l	wrist_dev_l
     15.20000000	      6.16371849	      0.93902984	    190.96178637	     -0.48792824	      0.86315390	      0.79597302	     30.85781275	     -4.63911406	    -26.62564222	     16.10874945	      0.28115072	      9.77870221	      4.32640554	      0.00000000	     -2.36429700	     -2.33717610	     -2.08659608	     37.35482430	      0.65196468	     25.43560576	     -0.90912366	      0.00000000	     -0.00307494	      0.04656367	     -2.33759195	     -0.00571048	      0.06192968	     -2.48369144	     -0.00505183	      0.11321490	     -2.48369144	     -0.00351435	      0.11321490	     -2.04539295	     -0.00285539	      0.09495263	     -1.89929346	     -0.00175702	      0.07212712	     -1.75319396	     -0.02196402	      0.52673753	    -13.00098513	      0.00000000	      0.00000000	      0.00000000	      0.00000000	     -0.00000000	    -20.61878616	     -6.89095297	     -7.65202315	     29.76384917	     39.17888540	      0.00000000	      5.00000014	      4.67757286	    -16.93790493	      2.98650382	     41.51945005	     47.01588316	      0.00000000	      5.00000014
     15.23333333	      5.65187193	      1.54434220	    189.52915201	     -0.53167252	      0.86369061	      0.79276598	     29.14639041	     -2.88468213	    -26.26415261	     18.24270178	      0.31839521	     10.34813558	      3.95530343	      0.00000000	      0.11807930	     -2.89484407	      0.29310042	     46.50238090	      0.81161966	     19.50636496	     -9.55396490	      0.00000000	     -0.00362093	      0.15798493	     -2.09501245	     -0.00672442	      0.21011996	     -2.22595073	     -0.00594882	      0.38412457	     -2.22595073	     -0.00413836	      0.38412457	     -1.83313590	     -0.00336239	      0.32216288	     -1.70219762	     -0.00206900	      0.24471866	     -1.57125934	     -0.02586392	      1.78715718	    -11.65183077	      0.00000000	      0.00000000	      0.00000000	      0.00000000	     -0.00000000	    -20.86283174	     -7.06287803	     -8.34308848	     30.31955240	     39.09554678	      0.00000000	      5.00000014	      2.42191906	    -15.27202099	     -0.14057526	     42.56158706	     46.62839889	      0.00000000	      5.00000014
     15.26666667	      5.14232840	      2.22288698	    187.75848267	     -0.57563026	      0.86626706	      0.78944170	     26.79980767	     -0.91189998	    -25.23211997	     19.90501211	      0.34740800	     11.05061263	      4.07142767	      0.00000000	      3.56889208	     -3.87754641	      0.96247878	     55.73012228	      0.97267413	     12.28689837	    -16.72350724	      0.00000000	     -0.00363674	      0.27934967	     -1.78524913	     -0.00675379	      0.37153507	     -1.89682720	     -0.00597480	      0.67921080	     -1.89682720	     -0.00415643	      0.67921080	     -1.56209299	     -0.00337708	      0.56964985	     -1.45051492	     -0.00207803	      0.43271264	     -1.33893685	     -0.02597688	      3.16005938	     -9.92902011	      0.00000000	      0.00000000	      0.00000000	      0.00000000	     -0.00000000	    -20.44476738	     -7.36088218	     -8.55616388	     30.39592261	     39.14796253	      0.00000000	      5.00000014	     -0.03563847	    -13.63133595	     -2.32687982	     42.90567985	     46.36618225	      0.00000000	      5.00000014
     15.30000000	      4.66169441	      2.75544110	    185.67286841	     -0.61896682	      0.87057588	      0.78576411	     23.81423807	      1.00219665	    -23.57390268	     20.75802646	      0.36229591	     11.85231360	      5.07484505	      0.00000000	      7.70679966	     -5.43854329	      0.50243094	     64.06384117	      1.11812496	      6.51126877	    -19.05641372	      0.00000000	     -0.00349680	      0.37552009	     -1.39393095	     -0.00649390	      0.49944172	     -1.48105163	     -0.00574489	      0.91303955	     -1.48105163	     -0.00399649	      0.91303955	     -1.21968958	     -0.00324712	      0.76576057	     -1.13256890	     -0.00199807	      0.58168062	     -1.04544821	     -0.02497726	      4.24795838	     -7.75262575	      0.00000000	      0.00000000	      0.00000000	      0.00000000	     -0.00000000	    -19.42847302	     -7.62450227	     -8.36058468	     30.10752737	     39.21089276	      0.00000000	      5.00000014	     -2.41969686	    -12.56050403	     -2.58636540	     42.42677113	     46.32246876	      0.00000000	      5.00000014
     15.33333333	      4.22436285	      3.20329228	    183.41162960	     -0.66082852	      0.87602200	      0.78254056	     20.20451078	      2.90399085	    -20.78086355	     20.38880690	      0.35585181	     12.46966596	      5.76467285	      0.00000000	     12.26312601	     -6.92164541	      0.18538290	     70.63525063	      1.23281769	      2.62153322	    -19.42998186	      0.00000000	     -0.00288828	      0.45006960	     -0.94370156	     -0.00536382	      0.59859257	     -1.00268291	     -0.00474516	      1.09429923	     -1.00268291	     -0.00330102	      1.09429923	     -0.82573887	     -0.00268206	      0.91778194	     -0.76675752	     -0.00165036	      0.69715782	     -0.70777617	     -0.02063069	      5.09127737	     -5.24858497	      0.00000000	      0.00000000	      0.00000000	      0.00000000	     -0.00000000	    -17.79108222	     -8.69170059	     -4.79772259	     29.51572799	     40.06820132	      0.00000000	      5.00000014	     -4.72630151	    -11.36549855	     -3.02845596	     41.29002196	     46.22139670	      0.00000000	      5.00000014
     15.36666667	      3.81407221	      3.10016100	    181.45471795	     -0.70043756	      0.88186892	      0.78032582	     16.29235867	      3.72762409	    -18.62291170	     19.51925197	      0.34067521	     13.40232452	      7.63002668	      0.00000000	     16.90967065	     -7.63788131	     -0.08409466	     74.66684673	      1.30318232	      0.73367157	    -19.51694948	      0.00000000	     -0.00298603	      0.44746760	     -0.48933741	     -0.00554535	      0.59513190	     -0.51992100	     -0.00490574	      1.08797271	     -0.51992100	     -0.00341273	      1.08797271	     -0.42817023	     -0.00277282	      0.91247592	     -0.39758664	     -0.00170622	      0.69312731	     -0.36700306	     -0.02132889	      5.06184295	     -2.72154786	      0.00000000	      0.00000000	      0.00000000	      0.00000000	     -0.00000000	    -15.54321118	     -9.63052771	     -1.01553739	     28.73279963	     40.89723340	      0.00000000	      5.00000014	     -6.52392122	    -11.33108218	     -0.16732287	     39.43109909	     46.47917812	      0.00000000	      5.00000014
     15.40000000	      3.44649027	      2.64016085	    179.86844612	     -0.73786993	      0.88745758	      0.77904128	     12.21849566	      3.84421243	    -16.84687553	     17.93901878	      0.31309494	     14.38475457	      9.46545150	      0.00000000	     21.19206118	     -8.08369762	     -1.03689175	     75.62294268	      1.31986934	      1.55166986	    -19.47899326	      0.00000000	     -0.00235991	      0.38849851	     -0.07534814	     -0.00438259	      0.51670302	     -0.08005740	     -0.00387710	      0.94459528	     -0.08005740	     -0.00269714	      0.94459528	     -0.06592962	     -0.00219141	      0.79222616	     -0.06122036	     -0.00134845	      0.60178419	     -0.05651110	     -0.01685661	      4.39477286	     -0.41906374	      0.00000000	      0.00000000	      0.00000000	      0.00000000	     -0.00000000	    -12.80984982	    -10.12697142	      1.05231303	     27.97601816	     41.32315517	      0.00000000	      5.00000014	     -8.17002390	    -11.33105369	      2.10710546	     37.31973389	     46.72618727	      0.00000000	      5.00000014
